<svg id="Layer_1" data-name="Layer 1" xmlns="http://www.w3.org/2000/svg" viewBox="0 0 512 512"><defs><style>.cls-1{fill:#eadbc7;}.cls-2{fill:#495875;}.cls-3{fill:#2686ef;}</style></defs><title>gesture-46-filled</title><path class="cls-1" d="M377.12,256a30.12,30.12,0,0,1,30,33.08c-1.49,15.66-15.54,27.16-31.27,27.16h0a30.12,30.12,0,0,1,30,33.08c-1.49,15.66-15.54,27.16-31.27,27.16H345.71a30.12,30.12,0,0,1,30,33.08c-1.49,15.66-15.54,27.16-31.27,27.16H323.12a30.12,30.12,0,0,1,30,33.08c-1.49,15.66-15.54,27.16-31.27,27.16H262.16a124.57,124.57,0,0,1-42.85-7.6l-13.09-4.79a166.94,166.94,0,0,0-57.43-10.19h-44V256h23.12c75.53,0,89.82-60.24,102.75-100.86,3.47-10.89,11.42-19.61,22.85-19.61h0a32,32,0,0,1,32,32s2.35,48-30.12,88.49Z"/><path class="cls-2" d="M377.12,240.94H283c19.08-37.09,17.65-72.24,17.58-73.43a47.09,47.09,0,0,0-47-47c-17,0-31.29,11.54-37.2,30.1l-2.23,7.1c-12.17,39-26,83.27-86.18,83.27H104.77A15.06,15.06,0,0,0,89.71,256V474.35a15.06,15.06,0,0,0,15.06,15.06h44A151.34,151.34,0,0,1,201,498.68l13.09,4.79a139.21,139.21,0,0,0,48,8.52h59.66c23.76,0,44.08-17.92,46.26-40.79A45.49,45.49,0,0,0,364,447.51c14.53-6.62,25.18-20.34,26.72-36.54a45.44,45.44,0,0,0-3.08-21.29c17.76-5.13,31.44-20.41,33.2-38.95a45.38,45.38,0,0,0-10.87-34,44,44,0,0,0,12.17-26.21,45.18,45.18,0,0,0-45-49.56Zm15,46.7c-.73,7.59-7.88,13.54-16.28,13.54H360.77a15.06,15.06,0,1,0,0,30.12h15.06a15.06,15.06,0,0,1,15,16.59c-.72,7.59-7.87,13.53-16.28,13.53H330.65a15.06,15.06,0,1,0,0,30.12h15.06a15.06,15.06,0,0,1,15,16.59c-.72,7.59-7.87,13.53-16.28,13.53H308.06a15.06,15.06,0,1,0,0,30.12h15.06a15.06,15.06,0,0,1,15,16.59c-.72,7.59-7.87,13.53-16.28,13.53H262.16a109.2,109.2,0,0,1-37.67-6.68l-13.08-4.79a181.35,181.35,0,0,0-62.61-11.11h-29V271.06h8.06c82.36,0,102-62.83,114.93-104.41l2.18-6.94c.68-2.14,3.31-9.12,8.5-9.12,9.33,0,16.92,7.59,16.94,17.65,0,.43,1.74,42.73-26.82,78.33a15.06,15.06,0,0,0,11.75,24.49H377.12a15.06,15.06,0,0,1,15,16.58Z"/><path class="cls-3" d="M255.36,0A15.06,15.06,0,0,0,240.3,15.06V75.29a15.06,15.06,0,1,0,30.12,0V15.06A15.06,15.06,0,0,0,255.36,0Z"/><path class="cls-3" d="M165,135.53H104.77a15.06,15.06,0,1,0,0,30.12H165a15.06,15.06,0,1,0,0-30.12Z"/><path class="cls-3" d="M405.94,135.53H345.71a15.06,15.06,0,0,0,0,30.12h60.24a15.06,15.06,0,1,0,0-30.12Z"/><path class="cls-3" d="M160.59,42.06A15.06,15.06,0,1,0,139.3,63.35l45.18,45.18a15.06,15.06,0,0,0,21.29-21.29Z"/><path class="cls-3" d="M371.41,42.06a15.05,15.05,0,0,0-21.29,0L304.94,87.24a15.06,15.06,0,1,0,21.29,21.29l45.18-45.18A15.05,15.05,0,0,0,371.41,42.06Z"/></svg>